<?xml version="1.0" encoding="UTF-8" standalone="no"?><svg version="1.1" x="0px" y="0px" viewBox="0 0 56 56" style="enable-background:new 0 0 56 56" xml:space="preserve" xmlns="http://www.w3.org/2000/svg" xmlns:svg="http://www.w3.org/2000/svg"><g><path style="fill:#e9e9e0" d="M36.985,0H7.963C7.155,0,6.5,0.655,6.5,1.926V55c0,0.345,0.655,1,1.463,1h40.074 c0.808,0,1.463-0.655,1.463-1V12.978c0-0.696-0.093-0.92-0.257-1.085L37.607,0.257C37.442,0.093,37.218,0,36.985,0z"/><polygon style="fill:#d9d7ca" points="37.5,0.151 37.5,12 49.349,12"/><circle style="fill:#f3d55b" cx="18.931" cy="14.431" r="4.569"/><polygon style="fill:#585859;fill-opacity:1" points="6.5,39 17.5,39 49.5,39 49.5,28 39.5,18.5 29,30 23.517,24.517"/><path style="fill:#434344;fill-opacity:1" d="M48.037,56H7.963C7.155,56,6.5,55.345,6.5,54.537V39h43v15.537C49.5,55.345,48.845,56,48.037,56z"/><path style="font-size:14px;line-height:1.25;font-family:Allerta;-inkscape-font-specification:Allerta;text-align:center;letter-spacing:.05px;word-spacing:0;text-anchor:middle;fill:#fff;stroke-width:1.04808" d="m 21.269778,42.464363 v 10.076172 h -1.640625 v -4.539063 h -4.361328 v 4.539063 H 13.599856 V 42.464363 h 1.667969 v 4.416016 h 4.361328 v -4.416016 z m 4.301953,1.244141 v 3.171875 h 4.210938 v 1.121093 h -4.210938 v 3.294922 h 4.634766 v 1.244141 H 23.903763 V 42.464363 h 6.302734 v 1.244141 z m 8.622266,8.832031 H 32.526028 V 42.464363 h 1.667969 z m 4.274609,-8.832031 v 3.171875 h 4.210937 v 1.121093 h -4.210937 v 4.539063 H 36.800637 V 42.464363 h 6.302734 v 1.244141 z" transform="scale(0.99229484,1.007765)" aria-label="HEIF"/></g></svg>