<?xml version="1.0" encoding="UTF-8" standalone="no"?><svg version="1.1" x="0px" y="0px" viewBox="0 0 56 56" style="enable-background:new 0 0 56 56" xml:space="preserve" xmlns="http://www.w3.org/2000/svg" xmlns:svg="http://www.w3.org/2000/svg"><g><path style="fill:#e9e9e0" d="M36.985,0H7.963C7.155,0,6.5,0.655,6.5,1.926V55c0,0.345,0.655,1,1.463,1h40.074 c0.808,0,1.463-0.655,1.463-1V12.978c0-0.696-0.093-0.92-0.257-1.085L37.607,0.257C37.442,0.093,37.218,0,36.985,0z"/><path style="enable-background:new 0 0 56 56;fill:#c8bdb8;fill-opacity:1" d="M 39.5 26.03125 L 29 37.53125 L 23.517578 32.048828 L 6.5 46.53125 L 6.5 55 C 6.5 55.345 7.1548922 56 7.9628906 56 L 48.037109 56 C 48.845109 56 49.5 55.345 49.5 55 L 49.5 46.53125 L 49.5 35.53125 L 39.5 26.03125 z"/><polygon style="fill:#d9d7ca" points="37.5,0.151 37.5,12 49.349,12"/><circle style="fill:#c8bdb8;fill-opacity:1" cx="18.931" cy="21.961884" r="4.5689998"/></g></svg>