<?xml version="1.0" encoding="UTF-8" standalone="no"?><svg version="1.1" x="0px" y="0px" viewBox="0 0 56 56" style="enable-background:new 0 0 56 56" xml:space="preserve" xmlns="http://www.w3.org/2000/svg" xmlns:svg="http://www.w3.org/2000/svg"><g><path style="fill:#e9e9e0" d="M36.985,0H7.963C7.155,0,6.5,0.655,6.5,1.926V55c0,0.345,0.655,1,1.463,1h40.074 c0.808,0,1.463-0.655,1.463-1V12.978c0-0.696-0.093-0.92-0.257-1.085L37.607,0.257C37.442,0.093,37.218,0,36.985,0z"/><path style="fill:#1a73e8;fill-opacity:1" d="M48.037,56H7.963C7.155,56,6.5,55.345,6.5,54.537V39h43v15.537C49.5,55.345,48.845,56,48.037,56z"/><path style="fill:#c8bdb8" d="M24.5,28c-0.166,0-0.331-0.041-0.481-0.123C23.699,27.701,23.5,27.365,23.5,27V13 c0-0.365,0.199-0.701,0.519-0.877c0.321-0.175,0.71-0.162,1.019,0.033l11,7C36.325,19.34,36.5,19.658,36.5,20 s-0.175,0.66-0.463,0.844l-11,7C24.874,27.947,24.687,28,24.5,28z M25.5,14.821v10.357L33.637,20L25.5,14.821z"/><path style="fill:#c8bdb8" d="M28.5,35c-8.271,0-15-6.729-15-15s6.729-15,15-15s15,6.729,15,15S36.771,35,28.5,35z M28.5,7 c-7.168,0-13,5.832-13,13s5.832,13,13,13s13-5.832,13-13S35.668,7,28.5,7z"/><polygon style="fill:#d9d7ca" points="37.5,0.151 37.5,12 49.349,12"/><path style="font-size:13.4667px;line-height:1.25;font-family:Allerta;-inkscape-font-specification:Allerta;text-align:center;letter-spacing:0;word-spacing:0;text-anchor:middle;fill:#fff" d="m 20.714305,42.673572 h 1.604431 v 9.692341 h -1.604431 v -6.667594 l -2.169927,5.39194 h -1.394014 l -2.183078,-5.39194 v 6.667594 h -1.604431 v -9.692341 h 1.604431 l 2.880085,6.628141 z m 11.901722,4.800142 q 0,1.22305 -0.315625,2.156776 -0.302475,0.933726 -0.85482,1.551827 -0.539194,0.6181 -1.275654,0.933726 -0.723309,0.315626 -1.59128,0.315626 -0.867971,0 -1.604431,-0.315626 -0.723309,-0.315626 -1.275654,-0.933726 -0.539194,-0.618101 -0.85482,-1.551827 -0.302475,-0.933726 -0.302475,-2.156776 0,-1.22305 0.302475,-2.143625 0.315626,-0.933726 0.85482,-1.551827 0.552345,-0.6181 1.275654,-0.933726 0.73646,-0.328777 1.604431,-0.328777 0.867971,0 1.59128,0.328777 0.73646,0.315626 1.275654,0.933726 0.552345,0.618101 0.85482,1.551827 0.315625,0.920575 0.315625,2.143625 z m -4.076833,3.66915 q 0.48659,0 0.920576,-0.184116 0.447136,-0.197266 0.789064,-0.631251 0.355079,-0.433985 0.552345,-1.130992 0.197266,-0.710158 0.210417,-1.722791 -0.01315,-0.986331 -0.210417,-1.670186 -0.184115,-0.697007 -0.526043,-1.144144 -0.328777,-0.447136 -0.762762,-0.644402 -0.420834,-0.197267 -0.894273,-0.197267 -0.48659,0 -0.933726,0.184115 -0.433986,0.184115 -0.789065,0.631252 -0.341928,0.433985 -0.539194,1.130992 -0.197266,0.697007 -0.210417,1.70964 0.01315,0.98633 0.197266,1.683337 0.197266,0.697007 0.526043,1.144144 0.341928,0.433985 0.762762,0.644402 0.433986,0.197267 0.907424,0.197267 z m 8.890127,1.275654 -3.011596,-9.744946 h 1.801697 l 2.248834,8.364083 2.380344,-8.364083 h 1.788546 l -3.156258,9.744946 z" aria-label="MOV"/></g></svg>