<?xml version="1.0" encoding="UTF-8" standalone="no"?><svg version="1.1" x="0px" y="0px" viewBox="0 0 56 56" style="enable-background:new 0 0 56 56" xml:space="preserve" xmlns="http://www.w3.org/2000/svg" xmlns:svg="http://www.w3.org/2000/svg"><g><path style="fill:#e9e9e0" d="M36.985,0H7.963C7.155,0,6.5,0.655,6.5,1.926V55c0,0.345,0.655,1,1.463,1h40.074 c0.808,0,1.463-0.655,1.463-1V12.978c0-0.696-0.093-0.92-0.257-1.085L37.607,0.257C37.442,0.093,37.218,0,36.985,0z"/><polygon style="fill:#d9d7ca" points="37.5,0.151 37.5,12 49.349,12"/><circle style="fill:#f3d55b" cx="18.931" cy="14.431" r="4.569"/><polygon style="fill:#db5857;fill-opacity:1" points="6.5,39 17.5,39 49.5,39 49.5,28 39.5,18.5 29,30 23.517,24.517"/><path style="fill:#ce3c3b;fill-opacity:1" d="M48.037,56H7.963C7.155,56,6.5,55.345,6.5,54.537V39h43v15.537C49.5,55.345,48.845,56,48.037,56z"/><path style="font-size:14px;line-height:1.25;font-family:Allerta;-inkscape-font-specification:Allerta;text-align:center;letter-spacing:-.3px;word-spacing:0;text-anchor:middle;fill:#fff;stroke-width:1.04808" d="M 21.883645,42.464363 19.162942,52.595222 H 17.03013 L 15.375833,44.99366 13.612161,52.595222 H 11.465677 L 8.9090359,42.464363 h 1.8593751 l 1.777344,8.695313 1.914062,-8.695313 h 1.859375 l 1.777344,8.695313 1.927734,-8.695313 z m 3.6375,1.244141 v 3.171875 h 4.210938 v 1.121093 h -4.210938 v 3.294922 h 4.634766 v 1.244141 H 23.853176 V 42.464363 h 6.302735 v 1.244141 z m 11.389453,3.527343 q 0.314453,0.04102 0.669922,0.205079 0.355469,0.164062 0.65625,0.464843 0.314453,0.300782 0.519531,0.738282 0.205078,0.423828 0.205078,0.984375 0,0.683593 -0.205078,1.175781 -0.205078,0.492187 -0.519531,0.820312 -0.300781,0.314453 -0.669922,0.50586 -0.355469,0.177734 -0.697266,0.273437 -0.328125,0.0957 -0.58789,0.123047 -0.259766,0.01367 -0.341797,0.01367 H 32.152786 V 42.464363 h 2.898437 q 0.642578,0 1.244141,0.150391 0.601562,0.15039 1.066406,0.478515 0.464844,0.328125 0.738281,0.861328 0.273438,0.519532 0.273438,1.244141 0,0.423828 -0.136719,0.779297 -0.136719,0.341797 -0.341797,0.601562 -0.205078,0.259766 -0.478516,0.4375 -0.259765,0.164063 -0.505859,0.21875 z m -1.066406,4.101563 q 0.724609,0 1.134765,-0.464844 0.410157,-0.464844 0.410157,-1.24414 0,-0.738282 -0.423828,-1.244141 -0.423829,-0.505859 -1.244141,-0.505859 h -1.927734 v 3.458984 z m -0.833985,-4.566406 q 0.300782,0 0.615235,-0.01367 0.314453,-0.01367 0.58789,-0.150391 0.273438,-0.136719 0.4375,-0.464844 0.177735,-0.328125 0.177735,-0.943359 0,-0.246094 -0.06836,-0.505859 -0.06836,-0.273438 -0.273437,-0.492188 -0.205078,-0.21875 -0.587891,-0.355469 -0.382812,-0.136718 -1.011718,-0.136718 h -1.09375 v 3.0625 h 0.06836 z m 7.588673,5.769531 H 40.958255 V 42.464363 h 2.898438 q 0.642578,0 1.271484,0.205078 0.628906,0.205078 1.121094,0.615235 0.505859,0.410156 0.80664,0.998046 0.314453,0.574219 0.314453,1.298829 0,0.765625 -0.259765,1.394531 -0.259766,0.615234 -0.72461,1.039062 -0.464843,0.423828 -1.121093,0.65625 -0.65625,0.232422 -1.449219,0.232422 H 42.59888 Z m 0,-8.832031 v 3.992187 h 1.503906 q 0.300782,0 0.587891,-0.0957 0.300781,-0.109375 0.546875,-0.341797 0.246094,-0.232422 0.396484,-0.642578 0.150391,-0.423828 0.150391,-1.039062 0,-0.246094 -0.06836,-0.560547 -0.06836,-0.328125 -0.28711,-0.615235 -0.205078,-0.300781 -0.58789,-0.492187 -0.382813,-0.205078 -1.011719,-0.205078 z" transform="scale(0.99229484,1.007765)" aria-label="WEBP"/></g></svg>